<?xml version="1.0" encoding="utf-8"?>
<!-- Generator: Adobe Illustrator 14.0.0, SVG Export Plug-In . SVG Version: 6.00 Build 43363)  -->
<!DOCTYPE svg PUBLIC "-//W3C//DTD SVG 1.1//EN" "http://www.w3.org/Graphics/SVG/1.1/DTD/svg11.dtd">
<svg version="1.1" id="Layer_1" xmlns="http://www.w3.org/2000/svg" xmlns:xlink="http://www.w3.org/1999/xlink" x="0px" y="0px"
	 width="94px" height="21.5px" viewBox="0 0 94 21.5" enable-background="new 0 0 94 21.5" xml:space="preserve">
<rect x="-29.821" y="-71.249" display="none" fill="#2F2F2F" width="163.667" height="163.669"/>
<g>
	
		<text transform="matrix(1 0 0 1 31.7583 18.5352)" fill="#FFFFFF" font-family="'MyriadPro-Bold'" font-size="9.7435" letter-spacing="3">STUD OS</text>
	
		<text transform="matrix(1 0 0 1 31.5557 8.709)" fill="#FFFFFF" font-family="'MyriadPro-Cond'" font-size="7.5783" letter-spacing="2">INNOVAT NAL</text>
	<polygon fill="#29B34B" points="70.875,18.614 72.042,18.614 74.042,3.58 72.875,3.58 	"/>
</g>
<g>
	<g>
		<path fill="#2DB34B" d="M14.252,3.716c-0.415,0-0.884-0.465-1.139-1.132c-0.3-0.787-0.188-1.535,0.255-1.705
			c0.059-0.022,0.122-0.034,0.187-0.034c0.415,0,0.884,0.466,1.139,1.133c0.3,0.786,0.188,1.534-0.254,1.704
			C14.38,3.705,14.318,3.716,14.252,3.716L14.252,3.716z"/>
		<path fill="#2F2F2F" d="M13.555,0.971c0.354,0,0.784,0.43,1.022,1.053c0.271,0.709,0.189,1.399-0.183,1.542
			c-0.045,0.017-0.093,0.025-0.143,0.025c-0.354,0-0.784-0.43-1.022-1.052c-0.271-0.71-0.189-1.4,0.183-1.543
			C13.458,0.979,13.506,0.971,13.555,0.971 M13.555,0.721c-0.08,0-0.158,0.014-0.231,0.042c-0.518,0.198-0.658,1-0.328,1.866
			c0.278,0.726,0.783,1.212,1.256,1.212c0.081,0,0.158-0.014,0.231-0.042c0.518-0.199,0.658-1,0.327-1.865
			C14.533,1.208,14.028,0.721,13.555,0.721L13.555,0.721z"/>
	</g>
	<ellipse fill="#2DB34B" stroke="#2F2F2F" stroke-width="0.25" cx="13.724" cy="10.605" rx="10.872" ry="8.324"/>
	<g>
		<path fill="#2DB34B" d="M6.823,8.299c-0.387-0.185-0.87-0.414-1.014-0.773C5.594,6.99,5.573,6.475,5.75,6.075
			c0.14-0.314,0.396-0.543,0.763-0.679c0.085-0.031,0.166-0.047,0.24-0.047c0.361,0,0.652,0.429,0.864,1.276
			c0.061,0.245,0.235,0.446,0.39,0.624c0.076,0.087,0.164,0.189,0.21,0.271C7.815,7.824,7.331,8.167,7.013,8.391
			C7.013,8.391,6.89,8.331,6.823,8.299z"/>
		<path fill="#2F2F2F" d="M6.752,5.599c0.105,0,0.376,0.106,0.621,1.086c0.076,0.303,0.279,0.539,0.443,0.728
			C7.832,7.43,7.849,7.45,7.867,7.47C7.562,7.696,7.234,7.929,6.989,8.102C6.97,8.092,6.951,8.083,6.931,8.074
			c-0.33-0.157-0.781-0.372-0.89-0.641c-0.187-0.465-0.21-0.923-0.063-1.256c0.111-0.251,0.32-0.435,0.619-0.545
			C6.656,5.61,6.708,5.599,6.752,5.599 M6.752,5.099c-0.1,0-0.209,0.02-0.327,0.063C5.365,5.555,5.174,6.617,5.577,7.619
			C5.81,8.197,6.635,8.457,7.031,8.684c0.334-0.234,0.989-0.695,1.468-1.064c0.006-0.34-0.542-0.66-0.64-1.055
			C7.712,5.978,7.422,5.099,6.752,5.099L6.752,5.099z"/>
	</g>
	<g>
		<path fill="#2DB34B" d="M20.794,8.391c-0.317-0.224-0.803-0.567-1.203-0.871c0.046-0.082,0.135-0.185,0.21-0.272
			c0.154-0.177,0.328-0.379,0.389-0.624c0.215-0.858,0.498-1.276,0.864-1.276c0.074,0,0.155,0.016,0.241,0.048
			c0.366,0.135,0.622,0.364,0.762,0.679c0.177,0.4,0.156,0.915-0.059,1.45c-0.145,0.36-0.627,0.589-1.015,0.774
			C20.917,8.331,20.854,8.362,20.794,8.391L20.794,8.391z"/>
		<path fill="#2F2F2F" d="M21.055,5.599c0.044,0,0.096,0.011,0.153,0.032c0.301,0.111,0.51,0.295,0.621,0.546
			c0.147,0.333,0.125,0.791-0.063,1.255c-0.108,0.27-0.561,0.485-0.891,0.642c-0.02,0.009-0.039,0.019-0.058,0.028
			c-0.253-0.179-0.577-0.409-0.877-0.631c0.018-0.021,0.035-0.04,0.05-0.058c0.164-0.189,0.367-0.424,0.442-0.727
			C20.679,5.705,20.95,5.599,21.055,5.599 M21.055,5.099c-0.669,0-0.96,0.879-1.107,1.465c-0.098,0.395-0.646,0.715-0.64,1.055
			c0.478,0.369,1.134,0.83,1.467,1.064c0.397-0.227,1.222-0.486,1.455-1.064c0.403-1.002,0.212-2.064-0.849-2.457
			C21.264,5.119,21.155,5.099,21.055,5.099L21.055,5.099z"/>
	</g>
	<path fill="#2DB34B" stroke="#2F2F2F" stroke-width="0.5" d="M22.906,12.395c0,1.557,1.49,2.986,0.216,4.105
		c-1.657,1.453-6.43,0.969-9.25,0.969c-2.782,0-7.595,0.51-9.253-0.91c-1.315-1.127,0.218-2.578,0.218-4.164
		c0-3.582,4.045-6.486,9.035-6.486C18.861,5.908,22.906,8.813,22.906,12.395z"/>
	<ellipse fill="#2DB34B" stroke="#2F2F2F" stroke-width="0.5" cx="13.862" cy="17.836" rx="6.215" ry="2.33"/>
	<path fill="#2DB34B" stroke="#2F2F2F" stroke-width="0.5" d="M16.786,11.727c2.706,0.684,4.607,2.373,4.607,4.852
		c0,3.291-3.353,1.186-7.489,1.186c-4.136,0-7.488,2.105-7.488-1.186c0-2.469,1.886-4.154,4.574-4.842
		c0.896-0.23,2.105,0.268,2.915,0.611C14.847,11.967,15.899,11.504,16.786,11.727z"/>
	
		<ellipse transform="matrix(0.9951 0.0993 -0.0993 0.9951 1.2489 -1.0515)" fill="#2F2F2F" cx="11.183" cy="12.015" rx="0.6" ry="0.329"/>
	
		<ellipse transform="matrix(-0.995 0.0994 -0.0994 -0.995 34.7214 22.295)" fill="#2F2F2F" cx="16.805" cy="12.013" rx="0.599" ry="0.331"/>
	<path fill="#2F2F2F" d="M14.083,14.025c0,1.029-0.127,0.889-0.18,0.889s-0.18,0.141-0.18-0.889c0-1.031,0.126-1.867,0.18-1.867
		S14.083,12.994,14.083,14.025z"/>
	<circle fill="#2F2F2F" cx="8.115" cy="11.084" r="0.385"/>
	<circle fill="#2F2F2F" cx="19.693" cy="11.084" r="0.384"/>
</g>
</svg>
